<?xml version="1.0" encoding="UTF-8" standalone="no"?>
<svg
   xmlns:dc="http://purl.org/dc/elements/1.1/"
   xmlns:cc="http://creativecommons.org/ns#"
   xmlns:rdf="http://www.w3.org/1999/02/22-rdf-syntax-ns#"
   xmlns:svg="http://www.w3.org/2000/svg"
   xmlns="http://www.w3.org/2000/svg"
   xmlns:sodipodi="http://sodipodi.sourceforge.net/DTD/sodipodi-0.dtd"
   xmlns:inkscape="http://www.inkscape.org/namespaces/inkscape"
   width="1000"
   height="1000"
   viewBox="0 0 264.58333 264.58334"
   version="1.1"
   id="svg8"
   inkscape:version="1.0.1 (3bc2e813f5, 2020-09-07)"
   sodipodi:docname="access_available.svg">
  <defs
     id="defs2">
    <inkscape:path-effect
       effect="copy_rotate"
       starting_point="138.1503,164.70831"
       origin="132.29167,164.70831"
       id="path-effect824"
       is_visible="true"
       copies_to_360="true"
       fuse_paths="false"
       starting_angle="0"
       rotation_angle="45"
       num_copies="8" />
  </defs>
  <sodipodi:namedview
     id="base"
     pagecolor="#ffffff"
     bordercolor="#666666"
     borderopacity="1.0"
     inkscape:pageopacity="0.0"
     inkscape:pageshadow="2"
     inkscape:zoom="0.35000001"
     inkscape:cx="143.59842"
     inkscape:cy="563.44527"
     inkscape:document-units="px"
     inkscape:current-layer="layer1"
     showgrid="false"
     units="px"
     inkscape:window-width="1920"
     inkscape:window-height="1021"
     inkscape:window-x="0"
     inkscape:window-y="0"
     inkscape:window-maximized="1"
     inkscape:snap-object-midpoints="true"
     inkscape:snap-bbox="true"
     inkscape:snap-bbox-edge-midpoints="true"
     inkscape:document-rotation="0"
     inkscape:bbox-nodes="true" />
  <metadata
     id="metadata5">
    <rdf:RDF>
      <cc:Work
         rdf:about="">
        <dc:format>image/svg+xml</dc:format>
        <dc:type
           rdf:resource="http://purl.org/dc/dcmitype/StillImage" />
        <dc:title></dc:title>
      </cc:Work>
    </rdf:RDF>
  </metadata>
  <g
     inkscape:label="Ebene 1"
     inkscape:groupmode="layer"
     id="layer1"
     transform="translate(0,-32.41665)">
    <path
       id="path914"
       style="color:#000000;font-style:normal;font-variant:normal;font-weight:normal;font-stretch:normal;font-size:medium;line-height:normal;font-family:sans-serif;font-variant-ligatures:normal;font-variant-position:normal;font-variant-caps:normal;font-variant-numeric:normal;font-variant-alternates:normal;font-variant-east-asian:normal;font-feature-settings:normal;font-variation-settings:normal;text-indent:0;text-align:start;text-decoration:none;text-decoration-line:none;text-decoration-style:solid;text-decoration-color:#000000;letter-spacing:normal;word-spacing:normal;text-transform:none;writing-mode:lr-tb;direction:ltr;text-orientation:mixed;dominant-baseline:auto;baseline-shift:baseline;text-anchor:start;white-space:normal;shape-padding:0;shape-margin:0;inline-size:0;clip-rule:nonzero;display:inline;overflow:visible;visibility:visible;opacity:1;isolation:auto;mix-blend-mode:normal;color-interpolation:sRGB;color-interpolation-filters:linearRGB;solid-color:#000000;solid-opacity:1;vector-effect:none;fill:#00ff00;fill-opacity:1;fill-rule:nonzero;stroke:none;stroke-width:50.0001;stroke-linecap:round;stroke-linejoin:miter;stroke-miterlimit:4;stroke-dasharray:none;stroke-dashoffset:0;stroke-opacity:1;color-rendering:auto;image-rendering:auto;shape-rendering:auto;text-rendering:auto;enable-background:accumulate;stop-color:#000000;stop-opacity:1"
       d="m 499.99805,21.058594 c -264.21679,4e-6 -478.937507,214.726626 -478.937503,478.943356 0,264.2168 214.720723,478.9375 478.937503,478.9375 264.21673,0 478.94336,-214.7207 478.94336,-478.9375 0,-264.21673 -214.72663,-478.943356 -478.94336,-478.943356 z m 0,49.998047 c 237.19466,0 428.94726,191.750649 428.94726,428.945309 0,237.19472 -191.7526,428.93946 -428.94726,428.93946 -237.19471,0 -428.939456,-191.74474 -428.939456,-428.93946 C 71.05859,262.80729 262.80334,71.056641 499.99805,71.056641 Z M 297.32227,305.10938 a 79.372729,79.372729 0 0 0 -79.37305,79.37304 79.372729,79.372729 0 0 0 79.37305,79.37305 79.372729,79.372729 0 0 0 79.37304,-79.37305 79.372729,79.372729 0 0 0 -79.37304,-79.37304 z m 405.35546,0 a 79.372729,79.372729 0 0 0 -79.37304,79.37304 79.372729,79.372729 0 0 0 79.37304,79.37305 79.372729,79.372729 0 0 0 79.37305,-79.37305 79.372729,79.372729 0 0 0 -79.37305,-79.37304 z M 232.95508,656.5 c 53.85301,91.53908 153.39192,153.12891 267.04297,153.12891 113.651,0 213.18854,-61.58983 267.04101,-153.12891 H 707.33008 C 659.99566,719.19138 584.84006,759.62305 499.99805,759.62305 415.156,759.62305 340.00255,719.19138 292.66992,656.5 Z"
       transform="matrix(0.26458333,0,0,0.26458333,0,32.41665)" />
  </g>
</svg>
